<svg width="300" height="60" viewBox="0 0 300 60" fill="none" xmlns="http://www.w3.org/2000/svg">
<rect x="0.5" y="0.5" width="299" height="59" rx="29.5" stroke="white"/>
<path d="M265.906 22.4648L266.937 21.4336C267.406 21.0117 268.109 21.0117 268.531 21.4336L277.672 30.5273C278.094 30.9961 278.094 31.6992 277.672 32.1211L268.531 41.2617C268.109 41.6836 267.406 41.6836 266.937 41.2617L265.906 40.2305C265.484 39.7617 265.484 39.0586 265.906 38.5898L271.578 33.1992H258.125C257.469 33.1992 257 32.7305 257 32.0742V30.5742C257 29.9648 257.469 29.4492 258.125 29.4492H271.578L265.906 24.1055C265.484 23.6367 265.437 22.9336 265.906 22.4648Z" fill="white"/>
<path d="M114.311 32.936H112.839V37H110.631V25.8H114.775C115.671 25.8 116.423 25.9707 117.031 26.312C117.639 26.6533 118.087 27.096 118.375 27.64C118.663 28.184 118.807 28.776 118.807 29.416C118.807 30.152 118.615 30.8187 118.231 31.416C117.847 32.0027 117.265 32.424 116.487 32.68L119.015 37H116.695L114.311 32.936ZM112.839 31.128H114.439C115.057 31.128 115.58 31 116.007 30.744C116.444 30.4773 116.663 30.0347 116.663 29.416C116.663 28.7973 116.449 28.3653 116.023 28.12C115.596 27.864 115.068 27.736 114.439 27.736H112.839V31.128ZM124.141 37.128C123.256 37.128 122.509 36.9253 121.901 36.52C121.293 36.104 120.84 35.5653 120.541 34.904C120.253 34.232 120.109 33.512 120.109 32.744C120.109 31.976 120.253 31.2613 120.541 30.6C120.84 29.928 121.293 29.384 121.901 28.968C122.509 28.552 123.261 28.344 124.157 28.344C125.341 28.344 126.28 28.7227 126.973 29.48C127.677 30.2373 128.029 31.3307 128.029 32.76V33.368H122.237V33.496C122.237 34.008 122.413 34.4507 122.765 34.824C123.117 35.1867 123.56 35.368 124.093 35.368C124.509 35.368 124.861 35.272 125.149 35.08C125.437 34.888 125.645 34.6267 125.773 34.296H127.949C127.725 35.128 127.288 35.8107 126.637 36.344C125.986 36.8667 125.154 37.128 124.141 37.128ZM125.901 31.928C125.88 31.256 125.709 30.76 125.389 30.44C125.069 30.12 124.648 29.96 124.125 29.96C123.57 29.96 123.133 30.136 122.813 30.488C122.493 30.84 122.322 31.32 122.301 31.928H125.901ZM132.576 37.128C131.531 37.128 130.715 36.728 130.128 35.928C129.541 35.128 129.248 34.072 129.248 32.76C129.248 31.4267 129.541 30.36 130.128 29.56C130.725 28.7493 131.557 28.344 132.624 28.344C133.339 28.344 133.899 28.5093 134.304 28.84C134.709 29.16 134.997 29.5013 135.168 29.864H135.296V28.552H137.52V37H135.296V35.544H135.168C134.976 35.9387 134.677 36.3013 134.272 36.632C133.867 36.9627 133.301 37.128 132.576 37.128ZM133.392 35.336C134.021 35.336 134.496 35.08 134.816 34.568C135.136 34.056 135.296 33.4427 135.296 32.728C135.296 32.0133 135.136 31.4053 134.816 30.904C134.507 30.4027 134.032 30.152 133.392 30.152C132.752 30.152 132.277 30.4027 131.968 30.904C131.659 31.4053 131.504 32.0133 131.504 32.728C131.504 33.4533 131.659 34.072 131.968 34.584C132.277 35.0853 132.752 35.336 133.392 35.336ZM142.578 37.128C141.511 37.128 140.684 36.728 140.098 35.928C139.522 35.128 139.234 34.072 139.234 32.76C139.234 31.416 139.522 30.344 140.098 29.544C140.684 28.744 141.516 28.344 142.594 28.344C143.319 28.344 143.884 28.5093 144.29 28.84C144.695 29.16 144.983 29.5013 145.154 29.864H145.282V24.984H147.506V37H145.282V35.544H145.154C144.962 35.9387 144.663 36.3013 144.258 36.632C143.852 36.9627 143.292 37.128 142.578 37.128ZM143.378 35.368C144.007 35.368 144.482 35.112 144.802 34.6C145.122 34.088 145.282 33.4747 145.282 32.76C145.282 32.056 145.122 31.448 144.802 30.936C144.482 30.424 144.007 30.168 143.378 30.168C142.738 30.168 142.258 30.424 141.938 30.936C141.628 31.4373 141.474 32.04 141.474 32.744C141.474 33.4693 141.628 34.088 141.938 34.6C142.258 35.112 142.738 35.368 143.378 35.368ZM153.021 25.8H156.317L158.797 32.696H158.845L161.325 25.8H164.621V37H162.445V28.968H162.365L159.549 37H158.109L155.277 28.968H155.197V37H153.021V25.8ZM170.219 37.128C169.334 37.128 168.587 36.9307 167.979 36.536C167.382 36.1307 166.934 35.5973 166.635 34.936C166.337 34.2747 166.187 33.5493 166.187 32.76C166.187 31.9707 166.331 31.2453 166.619 30.584C166.918 29.912 167.371 29.3733 167.979 28.968C168.587 28.5627 169.334 28.36 170.219 28.36C171.105 28.36 171.851 28.5627 172.459 28.968C173.067 29.3627 173.521 29.8907 173.819 30.552C174.118 31.2133 174.267 31.9387 174.267 32.728C174.267 33.5173 174.118 34.248 173.819 34.92C173.521 35.5813 173.067 36.1147 172.459 36.52C171.851 36.9253 171.105 37.128 170.219 37.128ZM170.219 35.336C170.838 35.336 171.302 35.0907 171.611 34.6C171.931 34.0987 172.091 33.4747 172.091 32.728C172.091 31.9813 171.931 31.368 171.611 30.888C171.302 30.3973 170.838 30.152 170.219 30.152C169.601 30.152 169.137 30.3973 168.827 30.888C168.518 31.368 168.363 31.9813 168.363 32.728C168.363 33.4747 168.518 34.0987 168.827 34.6C169.147 35.0907 169.611 35.336 170.219 35.336ZM175.898 28.552H178.09V29.896H178.202C178.341 29.5227 178.597 29.208 178.97 28.952C179.343 28.6853 179.823 28.552 180.41 28.552C180.634 28.552 180.826 28.5733 180.986 28.616L180.89 30.648C180.623 30.5733 180.341 30.536 180.042 30.536C179.381 30.536 178.89 30.712 178.57 31.064C178.25 31.4053 178.09 31.976 178.09 32.776V37H175.898V28.552ZM185.751 37.128C184.865 37.128 184.119 36.9253 183.511 36.52C182.903 36.104 182.449 35.5653 182.151 34.904C181.863 34.232 181.719 33.512 181.719 32.744C181.719 31.976 181.863 31.2613 182.151 30.6C182.449 29.928 182.903 29.384 183.511 28.968C184.119 28.552 184.871 28.344 185.766 28.344C186.951 28.344 187.889 28.7227 188.583 29.48C189.287 30.2373 189.639 31.3307 189.639 32.76V33.368H183.847V33.496C183.847 34.008 184.023 34.4507 184.375 34.824C184.727 35.1867 185.169 35.368 185.703 35.368C186.119 35.368 186.471 35.272 186.759 35.08C187.047 34.888 187.255 34.6267 187.383 34.296H189.559C189.335 35.128 188.897 35.8107 188.247 36.344C187.596 36.8667 186.764 37.128 185.751 37.128ZM187.511 31.928C187.489 31.256 187.319 30.76 186.999 30.44C186.679 30.12 186.257 29.96 185.735 29.96C185.18 29.96 184.743 30.136 184.423 30.488C184.103 30.84 183.932 31.32 183.911 31.928H187.511Z" fill="white"/>
</svg>
