<svg width="111" height="32" viewBox="0 0 111 32" fill="none" xmlns="http://www.w3.org/2000/svg">
<g clip-path="url(#clip0_28_674)">
<path d="M18.9731 22.7356C14.4324 22.766 9.93608 22.7943 5.41351 22.8227C5.40744 22.932 5.39733 23.0333 5.39733 23.1345C5.39733 25.3032 5.39733 27.4739 5.39733 29.6426C5.39733 30.8313 4.57412 31.7749 3.38078 31.9612C2.3007 32.1292 1.19231 31.4327 0.858577 30.3554C0.789808 30.1367 0.763514 29.8957 0.763514 29.6669C0.757446 23.6043 0.757446 17.5396 0.757446 11.477C0.757446 8.9539 1.50379 6.66978 3.00255 4.65092C4.72582 2.3263 7.02958 0.868349 9.85113 0.25277C11.36 -0.0772938 12.8851 -0.0752688 14.402 0.204172C16.7058 0.627383 18.6697 1.71072 20.3101 3.37117C21.7825 4.86354 22.7898 6.63131 23.3015 8.67041C23.5159 9.52088 23.6211 10.3876 23.6211 11.2643C23.6211 17.3655 23.6211 23.4666 23.6211 29.5697C23.6211 30.566 23.1883 31.3233 22.2922 31.7546C21.4589 32.1556 20.6337 32.0645 19.8894 31.5015C19.2563 31.0236 18.9731 30.3635 18.9731 29.5778C18.9731 27.4233 18.9731 25.2688 18.9731 23.1143C18.9731 22.9948 18.9731 22.8773 18.9731 22.7356ZM18.957 18.5116C18.965 18.4043 18.9731 18.3455 18.9731 18.2868C18.9731 16.0574 18.9731 13.8279 18.9731 11.5964C18.9731 11.3636 18.963 11.1287 18.9307 10.8978C18.8154 10.0899 18.5322 9.33257 18.1418 8.62789C16.7786 6.16962 14.7155 4.85139 11.8697 4.90201C10.2112 4.93036 8.78521 5.59859 7.58782 6.71838C6.11738 8.09533 5.38924 9.81045 5.39733 11.8354C5.40542 13.9757 5.39733 16.1141 5.39733 18.2544C5.39733 18.3435 5.39733 18.4306 5.39733 18.5116H18.957Z" fill="#50B848"/>
<path d="M36.8086 19.4717C37.6115 18.7428 38.4873 18.1738 39.5148 17.866C41.6042 17.2403 43.5439 17.5703 45.3096 18.8339C46.8084 19.9071 47.7186 21.3731 48.0402 23.1936C48.0826 23.4305 48.1029 23.6735 48.1029 23.9124C48.1069 26.4051 48.1029 28.8978 48.1029 31.3925C48.1029 31.4593 48.0968 31.5241 48.0948 31.6011H44.1203C44.1163 31.5181 44.1082 31.4371 44.1082 31.3581C44.1082 29.0233 44.0839 26.6886 44.1163 24.3538C44.1345 23.0397 42.8744 21.4582 41.2037 21.6283C40.2308 21.7275 39.5492 22.2823 39.08 23.1186C38.8797 23.475 38.7988 23.8598 38.7988 24.2647C38.7988 26.6218 38.7968 28.9808 38.7948 31.3378C38.7948 31.4188 38.7948 31.5019 38.7948 31.597H34.8406C34.8365 31.5424 34.8304 31.4776 34.8284 31.4128C34.8244 29.0699 34.7961 26.7271 34.8284 24.3862C34.8446 23.147 33.9971 22.1163 32.9737 21.7417C31.9098 21.3509 30.5769 21.8693 29.9357 22.9161C29.6627 23.3616 29.5191 23.8334 29.5231 24.368C29.5373 26.6886 29.5292 29.0071 29.5292 31.3277C29.5292 31.4168 29.5292 31.5039 29.5292 31.6011H25.5446C25.5385 31.5565 25.5264 31.514 25.5264 31.4715C25.5163 29.0092 25.4415 26.5448 25.5163 24.0845C25.5992 21.3083 27.0029 19.2895 29.5049 18.1555C32.1161 16.9709 34.5271 17.5197 36.6811 19.3523C36.7216 19.3867 36.758 19.4211 36.8106 19.4677L36.8086 19.4717Z" fill="#253D98"/>
<path d="M59.8017 19.8666V18.3844H63.2603V31.6396H59.8077V30.297C59.4841 30.5623 59.1949 30.8316 58.8733 31.0564C58.0197 31.6537 57.061 31.9332 56.0234 31.9717C54.6501 32.0223 53.3697 31.7125 52.2067 30.9754C50.9001 30.1472 50.0081 28.9748 49.5308 27.5107C48.9584 25.7571 48.9523 23.9914 49.6279 22.2662C50.4228 20.2372 51.9236 18.9716 54.0311 18.4654C55.4571 18.1231 56.877 18.1596 58.2382 18.7752C58.5234 18.9048 58.7964 19.0708 59.0553 19.249C59.3061 19.4232 59.5306 19.6378 59.7996 19.8626L59.8017 19.8666ZM59.7187 25.0201C59.652 24.6131 59.6156 24.1979 59.5104 23.8031C58.8308 21.2456 55.7868 20.6604 54.0797 22.1629C53.1108 23.0154 52.7933 24.1311 52.8884 25.3805C52.9753 26.5124 53.4466 27.448 54.4073 28.0939C55.0546 28.5293 55.7787 28.6832 56.5493 28.6305C57.4433 28.5698 58.2058 28.2276 58.8045 27.5533C59.4396 26.8344 59.6621 25.9657 59.7187 25.0221V25.0201Z" fill="#253D98"/>
<path d="M87.5702 31.6578C86.2049 31.6578 84.8963 31.6598 83.5856 31.6517C83.5067 31.6517 83.4056 31.5849 83.353 31.5201C81.8381 29.6106 80.3292 27.697 78.8183 25.7835C78.8041 25.7673 78.7859 25.7531 78.7354 25.7065V31.6436H74.9935V13.2289H78.7172V23.5702C78.8911 23.3799 79.0206 23.2442 79.146 23.1024C80.4829 21.5736 81.8178 20.0428 83.1588 18.516C83.2195 18.4471 83.3267 18.3742 83.4117 18.3742C84.7284 18.3661 86.0451 18.3682 87.3618 18.3682C87.3881 18.3682 87.4164 18.3722 87.4872 18.3783C85.7134 20.4397 83.9659 22.4727 82.2021 24.5219C83.9841 26.8911 85.7619 29.2542 87.5702 31.6578Z" fill="#253D98"/>
<path d="M97.2423 27.2009C98.193 27.8347 99.1355 28.4624 100.112 29.1124C99.9364 29.3392 99.7807 29.5579 99.6088 29.7604C98.6177 30.9187 97.3354 31.5505 95.8609 31.8319C95.0579 31.9858 94.2448 32.0364 93.4378 31.9595C90.6344 31.6963 88.4965 30.4205 87.4508 27.7132C86.2959 24.7204 87.1292 21.2051 89.9285 19.2632C91.3646 18.2669 92.9604 17.8943 94.6938 18.0907C96.3645 18.2791 97.7965 18.9554 98.9272 20.2068C99.9445 21.3327 100.545 22.661 100.648 24.1858C100.691 24.8277 100.657 25.4757 100.657 26.1378H90.6789C90.687 26.2067 90.689 26.2553 90.7012 26.3018C91.0895 27.7274 92.2687 28.6892 93.7412 28.8209C94.265 28.8674 94.7727 28.835 95.2824 28.7277C96.0247 28.5698 96.5991 28.1668 97.0198 27.537C97.0906 27.4317 97.1614 27.3285 97.2464 27.2029L97.2423 27.2009ZM90.6263 23.6897H97.123C96.8418 22.1568 95.7112 20.8122 93.7392 20.9054C91.9006 20.9904 90.8711 22.2763 90.6263 23.6897Z" fill="#253D98"/>
<path d="M110.757 28.3652V31.6416C110.701 31.6477 110.65 31.6558 110.602 31.6558C109.774 31.6558 108.945 31.676 108.118 31.6497C107.159 31.6173 106.249 31.3804 105.442 30.8357C104.398 30.133 103.856 29.1104 103.652 27.8975C103.585 27.4986 103.563 27.0895 103.559 26.6846C103.549 25.0565 103.553 23.4305 103.553 21.8024C103.553 21.7356 103.553 21.6688 103.553 21.5797H101.298V18.3641C101.648 18.3641 101.991 18.3722 102.335 18.3621C102.529 18.356 102.728 18.3418 102.916 18.2932C103.448 18.1576 103.757 17.7283 103.767 17.1086C103.779 16.4465 103.773 15.7823 103.775 15.1202C103.775 15.0392 103.775 14.9582 103.775 14.8589H107.42V18.3601H110.656V21.5635H107.303C107.299 21.6587 107.293 21.7235 107.293 21.7903C107.293 23.23 107.281 24.6677 107.299 26.1074C107.303 26.4699 107.359 26.8445 107.467 27.1908C107.685 27.8894 108.292 28.3268 109.024 28.3531C109.52 28.3713 110.017 28.3612 110.513 28.3632C110.586 28.3632 110.66 28.3632 110.755 28.3632L110.757 28.3652Z" fill="#253D98"/>
<path d="M65.9484 18.3783H69.4799V19.5912C70.5721 18.5727 71.8018 18.0259 73.2743 18.0482V21.5493C72.8617 21.602 72.441 21.6303 72.0344 21.7133C71.1485 21.8976 70.3941 22.2945 69.9552 23.1409C69.7388 23.558 69.6801 24.0137 69.6801 24.4753C69.6781 26.7797 69.6801 29.0861 69.6801 31.3905V31.6436H65.9504V18.3762L65.9484 18.3783Z" fill="#253D98"/>
</g>
<defs>
<clipPath id="clip0_28_674">
<rect width="110" height="32" fill="white" transform="translate(0.757446)"/>
</clipPath>
</defs>
</svg>
