<svg width="61" height="60" viewBox="0 0 61 60" fill="none" xmlns="http://www.w3.org/2000/svg">
<path d="M51.1972 17.6388C45.764 14.0238 38.5521 12.0212 30.8864 12H30.8441C30.8199 12 30.7957 12 30.7715 12C30.7503 12 30.7261 12 30.7049 12H30.6626C22.9969 12.0182 15.7789 14.0208 10.3428 17.6388C4.80678 21.3235 1.75745 26.2453 1.75745 31.5C1.75745 36.7547 4.80678 41.6765 10.3428 45.3612C15.8062 48.9974 23.0604 51 30.7685 51C38.4765 51 45.7308 48.9974 51.1942 45.3612C56.7301 41.6765 59.7795 36.7547 59.7795 31.5C59.7795 26.2453 56.7301 21.3235 51.1942 17.6388H51.1972Z" fill="#194461"/>
<path d="M47.6732 27.7725L47.891 27.8088C48.6957 27.948 49.6063 28.1022 50.3626 28.2837H50.3686L50.3747 28.2868C51.1098 28.432 51.9719 28.6679 52.7343 28.8767L53.0035 28.9493C53.1517 28.9977 53.4361 29.0914 53.7084 29.1822C53.9443 29.2609 54.1712 29.3335 54.2892 29.3728C55.4327 29.7963 56.3433 30.2228 57.0723 30.6766C57.1237 30.7129 57.1812 30.7522 57.2448 30.7946C57.3053 30.837 57.3718 30.8823 57.4384 30.9277H36.0719C36.0567 30.9277 36.0446 30.9156 36.0446 30.9005C36.0295 29.5785 36.0083 28.1718 35.9418 26.75C36.2171 26.7621 36.5165 26.7712 36.8281 26.7833C37.7205 26.8135 38.734 26.8498 39.4691 26.9134C39.6536 26.9255 39.9047 26.9436 40.186 26.9618C40.903 27.0071 41.7924 27.0646 42.2159 27.113C42.5456 27.1493 42.8935 27.1796 43.2656 27.2159C43.8464 27.2703 44.4454 27.3248 44.9567 27.3944C45.117 27.4155 45.3469 27.4488 45.6071 27.4821C45.9005 27.5214 46.2302 27.5638 46.5479 27.6091L46.6417 27.6212C46.7445 27.6364 46.8443 27.6485 46.9412 27.6636C47.2467 27.7059 47.5038 27.7483 47.6702 27.7785L47.6732 27.7725Z" fill="#EBDAC7"/>
<path d="M43.5074 35.6919H43.5013C42.4939 35.8038 40.9572 35.9187 38.9303 36.0367C38.4977 36.07 37.6356 36.1003 36.9458 36.1245C36.6433 36.1335 36.3711 36.1456 36.1744 36.1517C36.0716 36.1517 35.9597 36.1577 35.8417 36.1608C35.8508 36.0307 35.8598 35.9006 35.8689 35.7705L35.875 35.6737C35.9415 34.5 36.0111 33.2869 36.0353 32.0889C36.0353 32.0738 36.0474 32.0617 36.0595 32.0617H57.426L57.3625 32.1071C57.3171 32.1373 57.2687 32.1706 57.2203 32.2039C57.1477 32.2523 57.0811 32.3007 57.0115 32.343L56.6274 32.5609L56.4307 32.6728L56.346 32.7212L56.2553 32.7635C56.1554 32.8119 55.9981 32.8845 55.8438 32.9571C55.6926 33.0267 55.5444 33.0963 55.4476 33.1447L55.0392 33.305C54.9303 33.3444 54.8153 33.3897 54.7003 33.4381C54.534 33.5047 54.3767 33.5712 54.2163 33.6197L53.3421 33.904H53.336L53.33 33.907C53.1485 33.9736 52.7128 34.0916 52.4859 34.1521C51.5119 34.4304 50.4621 34.6512 49.4457 34.863L49.3822 34.8751C49.2733 34.8963 48.8195 34.9719 48.3808 35.0445C47.8514 35.1322 47.3069 35.223 47.1345 35.2562H47.1284C47.071 35.2653 47.0135 35.2714 46.953 35.2804C46.832 35.2956 46.6989 35.3137 46.5627 35.3319L46.3994 35.3531C45.4283 35.4801 44.3272 35.6253 43.5134 35.6888H43.5074V35.6919Z" fill="#EBDAC7"/>
<path d="M4.84313 29.6087C8.0891 28.7314 11.4228 28.2625 14.5447 27.8844C14.6778 27.8663 14.8079 27.8511 14.938 27.836L15.2526 27.7997C15.3766 27.7816 15.5007 27.7694 15.6277 27.7543C18.8041 27.4004 22.0531 27.1221 25.5471 26.9073C25.4806 28.193 25.4534 29.5331 25.4624 30.8974C25.4624 30.8974 25.4624 30.9095 25.4534 30.9156C25.4473 30.9216 25.4382 30.9216 25.4352 30.9216H3.40015C3.5756 30.3257 4.09895 29.8477 4.84313 29.6027V29.6087Z" fill="#EBDAC7"/>
<path d="M25.4526 32.0649C25.4526 32.0649 25.4768 32.077 25.4768 32.0891C25.504 33.3506 25.5675 34.6665 25.6583 36.0127C21.7105 35.7858 18.1983 35.4893 14.9312 35.1112C14.7981 35.0961 14.668 35.0809 14.5379 35.0658H14.5288H14.5228C13.1554 34.9025 11.8092 34.724 10.5296 34.5334L10.3662 34.5062C9.70375 34.3973 8.32429 34.1673 7.84026 34.0615C7.74951 34.0433 7.61338 34.0161 7.4591 33.9858C7.12633 33.9193 6.67256 33.8316 6.50921 33.7862L6.05544 33.6773L5.16605 33.4625C4.91194 33.402 4.67295 33.3203 4.43699 33.2054C3.93179 32.9694 3.56878 32.5671 3.40845 32.0649H25.4526Z" fill="#EBDAC7"/>
<path d="M34.6221 31.4062C34.6221 31.506 34.6221 31.5937 34.6221 31.6845V32.0687C34.613 33.2394 34.5798 34.4585 34.5193 35.6988C34.5041 35.9862 34.489 36.2766 34.4739 36.564C34.4618 36.806 34.4467 37.045 34.4315 37.284C34.2349 40.409 33.9415 42.9289 33.5089 45.2129C33.3334 46.1144 33.161 46.8434 32.9643 47.509C32.8706 47.8296 32.6981 48.2834 32.5317 48.7039C32.4168 48.9913 32.0326 49.0427 31.8481 48.7946C31.7634 48.6797 31.6817 48.5587 31.6 48.4377C31.4276 48.1805 31.3398 47.8871 31.3398 47.5846V14.4987C31.355 14.5169 31.3701 14.5411 31.3852 14.5592L31.4699 14.6802L31.6333 14.9101L31.6666 14.9585C32.8736 16.9249 33.4181 19.224 33.8265 21.4142C34.0655 22.8178 34.2561 24.2971 34.3862 25.8067C34.4013 25.9912 34.4164 26.1757 34.4315 26.3572C34.5556 27.9606 34.6191 29.6607 34.6221 31.4092V31.4062Z" fill="#EBDAC7"/>
<path d="M27.1291 26.4871C27.1442 26.2935 27.1594 26.0999 27.1745 25.9063C27.3318 24.0428 27.5799 22.2459 27.9126 20.5609L28.1637 19.4295L28.4723 18.3072L28.5086 18.1771C28.554 18.0501 28.5993 17.9079 28.6508 17.7596C28.7445 17.4813 28.8383 17.1939 28.9291 16.9701C28.9714 16.8703 29.0168 16.7553 29.0622 16.6373C29.1227 16.48 29.1862 16.3197 29.2497 16.1896C29.4494 15.7631 29.6611 15.3637 29.8971 14.9705C30 14.8101 30.1028 14.6649 30.1996 14.5349V47.5572C30.1996 47.8627 30.1149 48.1592 29.9516 48.4133C29.8578 48.5615 29.764 48.6946 29.6702 48.8217C29.6702 48.8217 29.6702 48.8247 29.6672 48.8277C29.4796 49.0667 29.1015 49.0092 28.9896 48.7279C28.8534 48.374 28.7203 47.9807 28.5903 47.533C27.9399 45.246 27.6343 42.841 27.3984 40.5843C27.2894 39.4922 27.1987 38.3729 27.1261 37.1598C27.111 36.9208 27.0989 36.6788 27.0868 36.4368C27.0353 35.4778 26.996 34.4826 26.9688 33.4782C26.9143 30.9492 26.9688 28.6622 27.1321 26.4902L27.1291 26.4871Z" fill="#EBDAC7"/>
<path d="M58.4122 30.0052L58.4062 29.9992L58.4001 29.9931C57.9191 29.6301 57.3927 29.3276 56.942 29.0826L56.9329 29.0765L56.9239 29.0705L56.0738 28.6651H56.0647L56.0556 28.656C55.5172 28.4322 54.891 28.175 54.2738 27.9784L53.3905 27.688H53.3784L53.3663 27.6819C53.1545 27.6275 52.9156 27.5609 52.6735 27.4944C52.2924 27.3885 51.8991 27.2796 51.5603 27.2009C51.3364 27.1525 51.1095 27.1041 50.8796 27.0527C50.1778 26.8984 49.4518 26.7381 48.8014 26.6383L48.6713 26.6141L48.3809 26.5687C47.679 26.4537 47.0952 25.9395 46.8925 25.2588V25.2437C45.5252 20.6334 42.7209 16.7884 38.9909 14.4198C38.8668 14.3411 38.8668 14.2352 38.888 14.1596C38.9122 14.0749 38.9848 13.9781 39.1089 13.9781C39.13 13.9781 39.1512 13.9781 39.1724 13.9841C44.5299 15.1065 49.2098 17.2513 52.7068 20.1887C56.1343 23.0686 58.1521 26.4961 58.5604 30.1172L58.4122 29.9931V30.0052Z" fill="#81C5BB"/>
<path d="M45.7368 25.9123C45.6248 26.0636 45.4494 26.1513 45.2618 26.1513C45.2406 26.1513 45.2195 26.1513 45.1983 26.1483C45.0017 26.1271 44.8262 26.112 44.7082 26.0999C41.8797 25.8246 39.3326 25.6189 36.9246 25.4706C36.3619 25.4343 35.9142 25.0078 35.8658 24.4542C35.7508 23.2018 35.5965 21.9585 35.4029 20.7605C35.3606 20.464 35.2577 19.98 35.167 19.5535C35.1216 19.3357 35.0792 19.136 35.049 18.9848V18.9727L35.0429 18.9606L34.7404 17.7959L34.7011 17.6507V17.6416L34.695 17.6325L34.6497 17.4873L34.5559 17.1999C34.205 16.0806 33.7996 15.1368 33.3095 14.314L33.1492 14.0447L33.1431 14.0356L33.1371 14.0266C33.0917 13.96 33.0433 13.8935 32.9979 13.8269L32.9495 13.7604C32.8709 13.6484 32.9011 13.5486 32.9284 13.4972C32.9647 13.4246 33.0463 13.3489 33.1673 13.3489C33.1855 13.3489 33.2036 13.3489 33.2218 13.355C36.0866 13.8602 38.779 15.2608 41.0115 17.4087C43.2259 19.5414 44.8897 22.3124 45.8215 25.4222C45.891 25.6552 45.7973 25.8337 45.7337 25.9184L45.7368 25.9123Z" fill="#81C5BB"/>
<path d="M34.0031 48.2563C34.0666 48.0869 34.112 47.9598 34.1392 47.8751C34.8804 45.4399 35.2494 42.8958 35.5126 40.7298C35.5973 39.9644 35.6729 39.2081 35.7395 38.4791C35.7909 37.9164 36.2356 37.4838 36.7983 37.4475C39.8446 37.2539 42.5914 37.024 45.193 36.7487C45.2142 36.7487 45.2384 36.7457 45.2596 36.7457C45.4471 36.7457 45.6166 36.8334 45.7315 36.9847C45.8465 37.1389 45.8797 37.3295 45.8223 37.5141C44.104 43.2285 40.0715 47.5998 35.0316 49.2062C34.9953 49.2183 34.9409 49.2334 34.8773 49.2485C34.8168 49.2637 34.7533 49.2727 34.6928 49.2727C34.4538 49.2727 34.2269 49.1517 34.0848 48.9491C33.9426 48.7464 33.9123 48.4953 34 48.2623L34.0031 48.2563Z" fill="#81C5BB"/>
<path d="M38.9939 48.6031C42.7239 46.2344 45.5282 42.3925 46.8925 37.7792C47.0952 37.0895 47.6881 36.5691 48.399 36.4542L48.6683 36.4118L48.8044 36.3876C49.1341 36.3392 49.5062 36.2697 49.9781 36.1698C50.2807 36.1063 50.5862 36.0397 50.8827 35.9732C51.1126 35.9218 51.3395 35.8734 51.5512 35.828C51.8991 35.7433 52.2924 35.6374 52.6735 35.5315C52.9156 35.465 53.1545 35.3984 53.3663 35.344H53.3784L53.3905 35.3379L54.2769 35.0475C54.891 34.8539 55.5172 34.5968 56.0556 34.3729H56.0647L56.0738 34.3638L56.9239 33.9585L56.9329 33.9524L56.942 33.9464C57.3927 33.6983 57.9221 33.3988 58.4001 33.0358L58.4062 33.0297L58.4122 33.0237L58.5604 32.8997C58.1521 36.5238 56.1343 39.9512 52.7068 42.8281C49.2098 45.7655 44.5329 47.9104 39.1724 49.0327C39.1512 49.0387 39.13 49.0387 39.1089 49.0387C38.9848 49.0387 38.9122 48.9419 38.888 48.8572C38.8668 48.7816 38.8668 48.6757 38.9909 48.5971L38.9939 48.6031Z" fill="#81C5BB"/>
<path d="M15.8641 36.9808C15.976 36.8295 16.1484 36.7418 16.336 36.7418C16.3572 36.7418 16.3814 36.7418 16.4025 36.7448C19.0072 37.0232 21.754 37.2531 24.8003 37.4437C25.363 37.48 25.8077 37.9125 25.8591 38.4752C25.9257 39.2043 26.0013 39.9606 26.086 40.7229C26.3492 42.8949 26.7182 45.4361 27.4594 47.8683C27.4866 47.959 27.532 48.0861 27.5986 48.2585C27.6863 48.4914 27.656 48.7425 27.5138 48.9452C27.3717 49.1479 27.1448 49.2719 26.9058 49.2719C26.8332 49.2719 26.7606 49.2598 26.688 49.2386L26.6759 49.2356C21.5846 47.6625 17.5067 43.2791 15.7733 37.5102C15.7189 37.3257 15.7521 37.1321 15.8641 36.9808Z" fill="#81C5BB"/>
<path d="M28.6422 13.7394L28.6211 13.7666L28.5727 13.8362C28.5243 13.9028 28.4789 13.9693 28.4335 14.0359L28.4275 14.045L28.4214 14.054L28.2611 14.3263C27.774 15.1582 27.3656 16.1141 27.0147 17.2486L26.924 17.536L26.8786 17.6812V17.6902L26.8725 17.6993L26.8332 17.8476L26.5307 19.0274V19.0395L26.5246 19.0516C26.4944 19.2028 26.452 19.4085 26.4067 19.6263C26.3159 20.0559 26.2131 20.546 26.1707 20.8545C25.965 22.1463 25.7986 23.4955 25.6837 24.8568C25.6504 25.2531 25.3297 25.5707 24.9365 25.5949C22.1775 25.7643 19.2129 26.0094 15.8732 26.3482C15.8611 26.3482 15.852 26.3482 15.8429 26.3482C15.7673 26.3482 15.6977 26.3119 15.6523 26.2514C15.6251 26.2151 15.5827 26.1425 15.61 26.0396C17.4069 19.3601 22.4256 14.3747 28.3942 13.331C28.4093 13.331 28.4275 13.328 28.4426 13.328C28.5757 13.328 28.6422 13.4339 28.6604 13.4672C28.6876 13.5186 28.7209 13.6214 28.6422 13.7334V13.7394Z" fill="#81C5BB"/>
<path d="M22.5459 14.4285C18.6889 16.8789 15.7485 21.0505 14.4779 25.8696C14.4779 25.8756 14.4719 25.8938 14.4537 25.9361C14.2843 26.3082 13.9122 26.5775 13.4887 26.6349C11.8067 26.8648 7.65018 27.4608 5.35713 28.0204C5.29058 28.0386 5.21193 28.0567 5.13025 28.0749C4.88219 28.1324 4.60085 28.1989 4.41027 28.2655C4.11078 28.3593 3.81734 28.4893 3.54205 28.6557C3.5118 28.6739 3.47853 28.6829 3.44828 28.6829C3.39382 28.6829 3.33937 28.6557 3.30609 28.6134C3.27584 28.574 3.26677 28.5256 3.27887 28.4712C4.12288 25.1466 6.35845 22.0307 9.7466 19.4654C13.1317 16.9031 17.497 15.0093 22.3705 13.9899C22.3916 13.9838 22.4128 13.9838 22.434 13.9838C22.5913 13.9838 22.6427 14.1321 22.6518 14.1623C22.67 14.2258 22.6821 14.3468 22.5459 14.4315V14.4285Z" fill="#81C5BB"/>
<path d="M3.36119 34.416C3.39447 34.3736 3.44892 34.3464 3.50338 34.3464C3.53363 34.3464 3.5669 34.3554 3.59715 34.3736C3.87244 34.54 4.16588 34.6701 4.47142 34.7669C4.65595 34.8274 4.93729 34.8969 5.18535 34.9544C5.26703 34.9726 5.34568 34.9907 5.40921 35.0089C7.70226 35.5685 11.8588 36.1645 13.5408 36.3944C13.9643 36.4519 14.3333 36.7211 14.5058 37.0932C14.5239 37.1325 14.53 37.1537 14.53 37.1597C15.7975 41.9788 18.7379 46.1504 22.598 48.6008C22.7341 48.6855 22.722 48.8065 22.7039 48.87C22.6948 48.9003 22.6434 49.0485 22.4861 49.0485C22.4649 49.0485 22.4437 49.0485 22.4226 49.0425C17.5491 48.023 13.1838 46.1293 9.79868 43.567C6.41053 41.0017 4.17495 37.8858 3.33094 34.5612C3.31582 34.5067 3.32489 34.4583 3.35817 34.419L3.36119 34.416Z" fill="#81C5BB"/>
</svg>
