<svg width="73" height="73" viewBox="0 0 73 73" fill="none" xmlns="http://www.w3.org/2000/svg">
<g clip-path="url(#clip0_42_452)">
<path d="M40.7101 65.8642H32.2898C30.3972 65.8642 28.5822 65.1123 27.244 63.7741C25.9057 62.4359 25.1539 60.6208 25.1539 58.7283C25.1539 56.088 23.7981 53.7332 21.5146 52.306C17.4398 49.7572 14.0823 46.2112 11.7598 42.0032C9.43734 37.7952 8.22653 33.0644 8.2419 28.2581C8.24847 23.938 9.24548 19.6769 11.1563 15.8023C13.0671 11.9277 15.8409 8.54285 19.2644 5.90786C22.6879 3.27286 26.67 1.4579 30.9046 0.602474C35.1392 -0.252952 39.5135 -0.126066 43.6914 0.973379C47.8693 2.07282 51.7395 4.11555 55.0045 6.94456C58.2695 9.77357 60.8424 13.3135 62.5254 17.2923C64.2085 21.2712 64.9568 25.5829 64.7129 29.8961C64.4691 34.2094 63.2395 38.4093 61.1187 42.173C58.7902 46.2728 55.48 49.7301 51.4853 52.2346C49.2018 53.6618 47.846 56.0167 47.846 58.6569C47.8554 59.6 47.6778 60.5356 47.3234 61.4096C46.9691 62.2836 46.4449 63.0787 45.7814 63.7489C45.1178 64.4191 44.3279 64.9512 43.4575 65.3142C42.5871 65.6773 41.6533 65.8642 40.7101 65.8642ZM36.5 5.70873C24.0835 5.70873 13.9506 15.8417 13.9506 28.2581C13.9506 36.1076 17.9467 43.2434 24.5831 47.3822C26.4873 48.5923 28.0575 50.2606 29.15 52.2346C30.2681 54.2166 30.8579 56.4527 30.8626 58.7283C30.8626 58.9157 30.8995 59.1013 30.9713 59.2744C31.043 59.4476 31.1481 59.6049 31.2806 59.7374C31.4132 59.87 31.5705 59.9751 31.7436 60.0468C31.9168 60.1185 32.1024 60.1555 32.2898 60.1555H40.7101C41.0886 60.1555 41.4516 60.0051 41.7193 59.7374C41.9869 59.4698 42.1373 59.1068 42.1373 58.7283C42.1421 56.4527 42.7318 54.2166 43.8499 52.2346C44.9424 50.2606 46.5127 48.5923 48.4169 47.3822C55.0532 43.2434 59.0493 36.1076 59.0493 28.2581C59.0493 15.8417 48.9164 5.70873 36.5 5.70873ZM45.1344 73H27.8656C27.1086 72.9999 26.3827 72.6991 25.8475 72.1638C25.3123 71.6286 25.0117 70.9026 25.0117 70.1457C25.0117 69.3887 25.3123 68.6628 25.8475 68.1275C26.3827 67.5922 27.1086 67.2915 27.8656 67.2913H45.1344C45.5093 67.2913 45.8805 67.3651 46.2268 67.5085C46.5732 67.6519 46.8879 67.8621 47.153 68.1272C47.4181 68.3923 47.6284 68.7069 47.7719 69.0533C47.9153 69.3996 47.9892 69.7708 47.9892 70.1457C47.9892 70.5206 47.9153 70.8918 47.7719 71.2381C47.6284 71.5844 47.4181 71.8991 47.153 72.1642C46.8879 72.4292 46.5732 72.6395 46.2268 72.7829C45.8805 72.9263 45.5093 73.0001 45.1344 73Z" fill="#F05528" fill-opacity="0.58"/>
<path d="M43.6358 58.3715H29.3641C28.6071 58.3714 27.8813 58.0706 27.3461 57.5354C26.8109 57.0001 26.5102 56.2741 26.5102 55.5172C26.5102 54.7602 26.8109 54.0343 27.3461 53.499C27.8813 52.9637 28.6071 52.663 29.3641 52.6628H43.6358C44.3928 52.663 45.1187 52.9637 45.6539 53.499C46.1891 54.0343 46.4897 54.7602 46.4897 55.5172C46.4897 56.2741 46.1891 57.0001 45.6539 57.5354C45.1187 58.0706 44.3928 58.3714 43.6358 58.3715Z" fill="#F05528" fill-opacity="0.58"/>
<path d="M36.5 55.5885C35.743 55.5885 35.0169 55.2878 34.4816 54.7525C33.9464 54.2172 33.6456 53.4912 33.6456 52.7342V32.611C33.648 32.1859 33.7454 31.7666 33.9306 31.3839C34.1158 31.0011 34.3841 30.6646 34.716 30.3989L42.066 24.3334C42.6527 23.8508 43.407 23.621 44.1631 23.6946C44.9192 23.7682 45.6151 24.1392 46.0977 24.7259C46.5803 25.3126 46.8101 26.0669 46.7365 26.823C46.6629 27.5792 46.2919 28.275 45.7053 28.7577L39.3543 33.9668V52.7342C39.3543 53.4912 39.0536 54.2172 38.5183 54.7525C37.983 55.2878 37.257 55.5885 36.5 55.5885Z" fill="#F05528" fill-opacity="0.58"/>
<path d="M36.5713 35.3226C35.9537 35.3226 35.3528 35.1223 34.8587 34.7517L26.8665 28.829C26.261 28.3747 25.8608 27.6985 25.7538 26.9492C25.6468 26.1999 25.8419 25.4387 26.296 24.8332C26.7502 24.2276 27.4263 23.8273 28.1756 23.7201C28.9249 23.613 29.6861 23.8079 30.2917 24.262L38.2839 30.1848C38.7632 30.5442 39.1172 31.0453 39.2958 31.6172C39.4744 32.189 39.4686 32.8025 39.2792 33.3709C39.0897 33.9392 38.7263 34.4335 38.2403 34.7838C37.7543 35.1341 37.1704 35.3226 36.5713 35.3226Z" fill="#F05528" fill-opacity="0.58"/>
</g>
<defs>
<clipPath id="clip0_42_452">
<rect width="73" height="73" fill="white"/>
</clipPath>
</defs>
</svg>
