<svg width="43" height="43" viewBox="0 0 43 43" fill="none" xmlns="http://www.w3.org/2000/svg">
<rect width="43" height="43" rx="21.5" fill="white"/>
<path d="M25.6484 18.8125L25.2969 22.25H22.5234V32.25H18.4219V22.25H16.3516V18.8125H18.3828V16.7422C18.3828 16.0391 18.4479 15.4141 18.5781 14.8672C18.7344 14.2943 18.9948 13.8255 19.3594 13.4609C19.724 13.0703 20.1797 12.7708 20.7266 12.5625C21.2995 12.3542 22.0026 12.25 22.8359 12.25H25.6094V15.6875H23.8906C23.5521 15.6875 23.2917 15.7266 23.1094 15.8047C22.9271 15.8568 22.7839 15.9479 22.6797 16.0781C22.6016 16.1823 22.5495 16.3255 22.5234 16.5078C22.4974 16.6641 22.4844 16.8594 22.4844 17.0938V18.8125H25.6094H25.6484Z" fill="black"/>
</svg>
