<svg width="80" height="38" viewBox="0 0 80 38" fill="none" xmlns="http://www.w3.org/2000/svg">
<g clip-path="url(#clip0_28_738)">
<path d="M44.4237 36.052C42.4765 31.5912 40.582 27.2543 38.6874 22.9139H38.5892C38.5786 23.0838 38.5611 23.2537 38.5611 23.4272C38.5611 27.2472 38.5471 31.0637 38.5681 34.8802C38.5681 35.3935 38.4313 35.5351 37.9296 35.5245C35.3017 35.4643 32.6774 35.4289 30.0496 35.4077C29.5935 35.4077 29.3093 35.1846 29.0462 34.8589C27.2709 32.6498 25.4886 30.4477 23.7168 28.235C22.8607 27.1658 22.8748 27.1622 23.794 26.1249C24.6957 25.1089 25.5833 24.0786 26.478 23.0555C26.5411 22.9847 26.6183 22.928 26.7516 22.8076C29.5198 26.217 32.2739 29.6086 35.0246 33.0003C35.0702 32.9861 35.1123 32.9719 35.1579 32.9578V13.9108H36.8735C38.0734 13.9108 39.2768 13.9391 40.4767 13.8966C40.9784 13.8789 41.1995 14.0701 41.3924 14.5233C42.8344 17.876 44.3045 21.2145 45.7675 24.5566C45.8271 24.6876 45.8868 24.8185 45.985 25.038C46.5464 23.6963 47.0726 22.443 47.5884 21.1862C48.5286 18.8956 49.4584 16.5979 50.4127 14.3108C50.4829 14.1409 50.7144 13.9285 50.8723 13.9285C52.7177 13.9002 54.5667 13.9108 56.5034 13.9108V14.6153C56.5034 21.3844 56.4963 28.1535 56.5069 34.9227C56.5069 35.3581 56.4332 35.5351 55.9525 35.5281C54.2966 35.4997 52.637 35.5174 50.9775 35.5139C50.8653 35.5139 50.7565 35.4997 50.5881 35.4856V22.3722C50.5425 22.3616 50.4969 22.3474 50.4513 22.3403C48.4585 26.8719 46.4622 31.4036 44.4167 36.052H44.4237Z" fill="#EAC364"/>
<path d="M5.10795 16.5625C3.65545 16.8245 2.26259 17.0758 0.760966 17.3449C0.760966 16.5767 0.750441 15.8544 0.778509 15.1393C0.778509 15.0649 0.996033 14.9587 1.12234 14.9375C3.06603 14.5834 5.01322 14.2436 6.95691 13.8966C8.1147 13.6913 9.27249 13.4789 10.4338 13.2735C10.6127 13.2417 10.7952 13.2275 11.0232 13.1956V30.8725C11.0583 30.9044 11.0969 30.9398 11.1355 30.9752C20.8364 16.959 33.6703 7.48508 50.1636 3.32874C48.4374 4.37313 46.6972 5.38921 44.9921 6.46901C41.0521 8.9614 37.277 11.6804 33.6844 14.6684C29.4672 18.1769 25.6009 22.0288 22.145 26.3019C19.9347 29.0315 17.9314 31.9098 16.1666 34.9545C15.9351 35.3546 15.686 35.5068 15.2228 35.5068C12.0582 35.4926 8.89709 35.4997 5.73246 35.5316C5.22373 35.5351 5.09391 35.3864 5.09391 34.8837C5.11146 29.0032 5.10444 23.1227 5.10444 17.2387V16.566L5.10795 16.5625Z" fill="#01497F"/>
<path d="M79.6978 35.5139H75.9753C75.4245 35.5139 74.8667 35.4891 74.3158 35.521C73.9018 35.5457 73.8106 35.3829 73.8106 34.9864C73.8247 31.131 73.8211 27.272 73.8211 23.4166V22.4359C73.7826 22.4217 73.7405 22.4076 73.7019 22.397C71.7196 26.9038 69.7373 31.4142 67.6954 36.0556C65.7341 31.5593 63.8255 27.1835 61.9134 22.8076C61.8783 22.8183 61.8433 22.8253 61.8117 22.836V35.4608H58.5208V13.9108H60.6855C61.7345 13.9108 62.7835 13.9391 63.8291 13.8966C64.2676 13.8789 64.4641 14.0418 64.629 14.4277C65.9832 17.5679 67.3551 20.6976 68.7234 23.8308C68.8847 24.199 69.0496 24.5601 69.2637 25.0345C69.818 23.675 70.3372 22.4111 70.8565 21.1472C71.7898 18.8743 72.723 16.5979 73.6738 14.3321C73.7475 14.1515 73.9931 13.9285 74.1615 13.9249C75.9894 13.8966 77.8208 13.9072 79.6978 13.9072V35.5068V35.5139Z" fill="white"/>
<path d="M21.8959 16.8882C20.4961 18.2477 19.1523 19.5505 17.7524 20.91C14.6089 17.0263 11.4758 13.1567 8.25854 9.18445H9.93559C11.6688 9.18445 13.4019 9.16321 15.1316 9.20569C15.4404 9.21277 15.8333 9.40395 16.0333 9.64469C17.8366 11.8008 19.6049 13.9887 21.3802 16.1695C21.5591 16.389 21.7135 16.6298 21.8959 16.8882Z" fill="#EAC364"/>
<path d="M26.8113 22.8501C26.6779 22.9705 26.5972 23.0271 26.5376 23.0979C25.6429 24.1211 24.7553 25.1513 23.8536 26.1674C22.9344 27.2047 22.9204 27.2082 23.7764 28.2774C25.5482 30.4901 27.3305 32.6922 29.1058 34.9014C29.3689 35.2271 29.6496 35.4466 30.1092 35.4501C31.7898 35.4643 33.4703 35.4855 35.1474 35.5139V33.025C35.1263 33.0321 35.1053 33.0392 35.0842 33.0427C32.3336 29.6511 29.5794 26.2594 26.8113 22.8501Z" fill="#EDC76C"/>
<path d="M79.7575 35.6767H76.035C75.4841 35.6767 74.9263 35.6519 74.3755 35.6838C73.9615 35.7086 73.8703 35.5457 73.8703 35.1492C73.8843 31.2938 73.8808 27.4348 73.8808 23.5794V22.5987C73.8422 22.5846 73.8001 22.5704 73.7615 22.5598C71.7792 27.0666 69.7969 31.577 67.755 36.2184C65.7938 31.7222 63.8852 27.3463 61.9731 22.9705C61.938 22.9811 61.9029 22.9882 61.8713 22.9988V35.6236H58.5804V14.0736H60.7451C61.7941 14.0736 62.8432 14.1019 63.8887 14.0595C64.3272 14.0418 64.5237 14.2046 64.6886 14.5905C66.0429 17.7308 67.4147 20.8604 68.783 23.9936C68.9444 24.3618 69.1093 24.7229 69.3233 25.1973C69.8776 23.8379 70.3969 22.574 70.9161 21.3101C71.8494 19.0372 72.7826 16.7607 73.7334 14.4949C73.8071 14.3144 74.0527 14.0913 74.2211 14.0878C76.049 14.0595 77.8804 14.0701 79.7575 14.0701V35.6696V35.6767Z" fill="#064C7D"/>
<path d="M38.6278 35.043C38.6068 31.2265 38.6173 27.4065 38.6208 23.59C38.6208 23.4201 38.6383 23.2466 38.6489 23.0767H38.7471C40.6417 27.4171 42.5362 31.7576 44.4799 36.2184C46.5254 31.5664 48.5182 27.0348 50.5145 22.5067C50.5601 22.5173 50.6057 22.5279 50.6513 22.5386V35.6519C50.8197 35.6626 50.932 35.6803 51.0407 35.6803C52.7003 35.6803 54.3562 35.6626 56.0157 35.6944C56.4999 35.705 56.5701 35.5245 56.5701 35.089C56.5596 28.3199 56.5631 21.5508 56.5666 14.7817V14.0772C54.6264 14.0772 52.7809 14.0665 50.9355 14.0949C50.7776 14.0949 50.5461 14.3073 50.4759 14.4772C49.5216 16.7643 48.5918 19.0584 47.6516 21.3525C47.1358 22.6094 46.6061 23.8626 46.0482 25.2044C45.95 24.9885 45.8868 24.8575 45.8307 24.7229C44.3677 21.3809 42.8976 18.0423 41.4556 14.6896C41.2627 14.2365 41.0416 14.0488 40.5399 14.063C39.34 14.1019 38.1401 14.0772 36.9367 14.0772H35.2211V33.1241C35.2211 33.1241 35.2141 33.1241 35.2106 33.1277V35.6378C36.1368 35.6519 37.0665 35.6661 37.9928 35.6909C38.4945 35.7015 38.6348 35.5599 38.6313 35.0465L38.6278 35.043Z" fill="#064C7D"/>
<path d="M21.9556 16.9909C21.7696 16.7324 21.6153 16.4917 21.4398 16.2722C19.6646 14.0913 17.8963 11.9034 16.0929 9.74735C15.893 9.51015 15.5 9.31543 15.1913 9.30835C13.4581 9.26587 11.7249 9.28711 9.99524 9.28711H8.39539V9.3827C11.5846 13.3195 14.6931 17.1608 17.8121 21.0127C19.212 19.6532 20.5557 18.3504 21.9556 16.9909Z" fill="#EDC76C"/>
<path d="M16.1842 34.9156C17.9489 31.8709 19.9523 28.9926 22.1626 26.263C25.6184 21.9898 29.4848 18.1415 33.7019 14.6295C37.2946 11.6414 41.0732 8.92246 45.0097 6.43007C46.7148 5.35027 48.455 4.33419 50.1812 3.28979C33.6879 7.44614 20.8504 16.9201 11.146 30.9362C11.1145 30.9079 11.0829 30.8761 11.0478 30.8477V35.4643C12.4442 35.4643 13.8405 35.4643 15.2369 35.4679C15.7 35.4679 15.9491 35.3156 16.1807 34.9156H16.1842Z" fill="#E57254"/>
</g>
<defs>
<clipPath id="clip0_28_738">
<rect width="79" height="37" fill="white" transform="translate(0.757446 0.5)"/>
</clipPath>
</defs>
</svg>
