<svg width="91" height="53" viewBox="0 0 91 53" fill="none" xmlns="http://www.w3.org/2000/svg">
<path d="M47.8573 52.9991C49.2878 52.8818 50.7608 52.9463 52.14 52.6165C57.3402 51.3736 61.4221 48.2972 64.6422 44.1816C66.3702 41.9729 67.6526 39.3991 69.0055 36.9178C69.9347 35.2132 71.2992 34.092 73.1123 33.7578C74.8022 33.4456 76.5668 33.4647 78.2993 33.4749C79.4557 33.4822 80.0991 34.1125 80.0097 35.4052C79.8763 37.3413 79.8382 39.2833 79.7693 41.2239C79.7503 41.7501 79.7664 42.2792 79.7664 43.1703C80.1724 42.672 80.4084 42.4902 80.5007 42.2528C82.0455 38.2662 84.2821 34.7295 87.146 31.5505C88.3068 30.2607 89.5116 28.7086 88.5164 26.8574C87.5843 25.125 85.7009 24.848 83.9406 24.9491C80.7733 25.1309 77.6148 25.5031 74.4563 25.8227C73.6282 25.9062 72.8089 26.0865 71.5499 26.2931C72.4131 24.8348 72.9862 23.6227 73.8085 22.6114C74.0884 22.2684 75.0513 22.2318 75.5995 22.3959C78.5382 23.2797 81.4842 23.8704 84.565 23.3134C87.5227 22.7799 90.6211 19.5775 90.7574 16.7839C90.5083 16.8777 90.2723 16.9158 90.0964 17.0389C85.7874 20.0641 83.4086 19.7929 79.312 16.4483C77.5122 14.9782 75.3181 13.7441 73.1005 13.0875C68.9029 11.8417 64.4443 13.8379 61.9131 17.505C59.6442 20.7925 58.6417 24.4977 58.1932 28.3978C58.161 28.6851 58.1156 28.9694 58.0511 29.4311C56.5634 28.9108 55.1871 28.3495 53.7625 27.9743C53.2627 27.8424 52.4464 27.9743 52.1092 28.3143C50.2361 30.2153 48.2663 32.0752 46.7127 34.2253C45.0814 36.4854 45.7145 38.5197 48.2047 39.7773C51.1917 41.2855 54.2359 41.7808 57.2801 39.276C56.8463 42.2821 56.1061 45.0889 54.1934 47.1848C52.3511 49.2045 49.9752 50.7375 47.8339 52.4846C47.8412 52.6561 47.85 52.8261 47.8573 52.9976V52.9991ZM60.5031 28.7452C60.3712 28.6719 60.2408 28.5986 60.1089 28.5254C61.8032 25.1778 64.0515 22.2332 66.9433 19.4148C64.6891 22.6803 62.5961 25.7127 60.5031 28.7452ZM58.438 34.6401C58.3471 34.6181 58.2563 34.5947 58.1639 34.5727C58.2988 33.1422 58.4336 31.7102 58.5714 30.2519C59.9227 30.6242 59.9711 30.6403 59.6648 31.5373C59.3057 32.5896 58.8513 33.6083 58.438 34.6416V34.6401Z" fill="#F25935"/>
<path d="M67.9722 5.97316C67.8373 7.91663 68.4236 9.56111 69.7749 10.8861C71.5953 12.6727 74.1573 12.5086 75.8062 10.5504C77.9035 8.0588 77.968 4.2891 75.96 1.72125C74.2716 -0.437673 71.5088 -0.591569 69.624 1.40614C68.4119 2.69153 67.8051 4.22901 67.9736 5.97316H67.9722Z" fill="#F25935"/>
<path d="M48.8613 24.8276C49.2673 24.3278 49.6293 23.7825 50.0881 23.3355C52.1972 21.2821 54.6287 19.9425 57.6832 20.1022C58.6373 20.1521 59.1151 19.7842 59.5768 18.8696C60.3434 17.3541 61.4441 16.0086 62.4041 14.5899C55.4949 11.7699 49.5575 18.8388 48.5154 24.6297L48.8628 24.8261L48.8613 24.8276Z" fill="#F25935"/>
<path d="M58.4732 22.1571C56.9225 23.9379 55.4876 25.5853 54.082 27.199C55.8452 27.9831 58.1068 25.5985 58.4732 22.1571Z" fill="#F25935"/>
<path d="M60.5031 28.7452C62.5961 25.7128 64.6891 22.6803 66.9433 19.4148C64.0515 22.2333 61.8032 25.1793 60.1089 28.5254C60.2408 28.5987 60.3712 28.672 60.5031 28.7452Z" fill="white"/>
<path d="M58.438 34.6402C58.8513 33.6069 59.3057 32.5882 59.6648 31.5359C59.9711 30.6404 59.9213 30.6228 58.5714 30.2505C58.4336 31.7103 58.2988 33.1408 58.1639 34.5713C58.2548 34.5933 58.3457 34.6167 58.438 34.6387V34.6402Z" fill="white"/>
<path d="M27.6097 36.0604C26.4454 36.0604 25.3124 36.0454 24.1808 36.0694C23.8481 36.077 23.6714 35.9716 23.4991 35.681C21.325 32.0056 19.1361 28.3392 16.9501 24.6699C16.9023 24.5899 16.783 24.593 16.7348 24.6727C16.7232 24.692 16.7119 24.711 16.7007 24.7301C14.4761 28.4446 12.25 32.1607 10.0299 35.8782C9.9482 36.0137 9.86356 36.0664 9.70614 36.0649C8.75126 36.0574 7.7949 36.0679 6.84002 36.0559C6.61578 36.0529 6.39006 35.9987 6.16879 35.946C4.41199 35.5304 2.91062 34.6707 1.72408 33.2794C0.683073 32.0583 0.198952 30.6008 0.0489635 29.0198C-0.0564739 27.9101 0.00441263 26.8049 0.270234 25.7178C0.562786 24.5193 1.21472 23.5346 2.04633 22.6568C3.13189 21.5109 4.42536 20.7295 5.98019 20.4916C6.8222 20.3621 7.68352 20.329 8.53593 20.3214C10.263 20.3049 11.9901 20.3335 13.7157 20.3455C13.8313 20.3455 13.9049 20.4829 13.8479 20.5834C13.4187 21.3604 12.9851 22.1358 12.5619 22.9172C12.4802 23.0678 12.3911 23.128 12.2173 23.1265C10.8051 23.119 9.39131 23.11 7.97905 23.1265C7.16376 23.1356 6.34551 23.2033 5.60002 23.5813C3.92936 24.429 2.94775 25.7705 2.79479 27.6948C2.73539 28.4401 2.7443 29.1839 2.97745 29.8946C3.48385 31.4425 4.46843 32.5281 6.03811 33.0054C6.62173 33.183 7.22316 33.2493 7.83054 33.2628C7.97162 33.2659 8.05181 33.2207 8.12606 33.0957C10.021 29.8961 11.9203 26.6995 13.8197 23.5015C14.1167 23.0016 14.4137 22.5002 14.7107 22.0003C15.0151 21.4883 15.4087 21.0577 15.8824 20.7039C16.5536 20.204 17.2768 20.1919 17.9674 20.6677C18.4203 20.9809 18.7901 21.3784 19.0663 21.8587C20.9404 25.105 22.8116 28.3543 24.6842 31.6036C24.7272 31.6776 24.8401 31.6467 24.8401 31.5611V24.9827C24.8401 23.9418 23.9963 23.0979 22.9553 23.0979H21.4391C20.6732 23.0979 20.0524 22.4771 20.0524 21.7112C20.0524 20.9453 20.6732 20.3244 21.4391 20.3244H30.4739C31.2377 20.3244 31.8569 20.9436 31.8569 21.7074C31.8569 22.4712 31.2377 23.0904 30.4739 23.0904H29.7303C28.5559 23.0904 27.6038 24.0425 27.6038 25.217V36.0545C27.6038 36.0578 27.6064 36.0604 27.6097 36.0604Z" fill="#F25935"/>
<path d="M39.7184 20.6674C39.7189 20.6668 39.7197 20.6665 39.7205 20.6665H42.6394C43.059 20.6665 43.3921 21.0166 43.3724 21.4358C43.2714 23.4979 43.1659 25.5585 43.0694 27.6207C43.0233 28.6023 42.9966 29.5853 42.9505 30.5669C42.9119 31.39 42.7633 32.2044 42.4706 32.9693C42.1795 33.7299 41.6194 34.3145 40.9197 34.7653C40.0639 35.315 39.1191 35.5971 38.1103 35.6626C37.4537 35.7047 36.7881 35.7498 36.1359 35.6931C34.9504 35.5899 33.8377 35.2496 32.8928 34.489C32.0787 33.8331 31.6716 32.9606 31.5602 31.9703C31.4829 31.281 31.5067 30.5771 31.5275 29.8805C31.5646 28.6779 31.6345 27.4752 31.6894 26.2726C31.7726 24.4257 31.8558 22.5774 31.9375 20.7305C31.9375 20.6941 31.9754 20.6694 32.0118 20.6694H34.3771C34.9924 20.6694 35.5154 21.1687 35.4882 21.7834C35.4392 22.9686 35.3812 24.1538 35.3248 25.339C35.2668 26.5474 35.197 27.7544 35.1539 28.9629C35.1301 29.6493 35.1643 30.3357 35.3575 31.0032C35.5565 31.6896 35.9978 32.1462 36.7094 32.3266C37.4165 32.5054 38.0167 32.3164 38.5174 31.7943C38.871 31.4249 39.0166 30.9785 39.1012 30.4928C39.3018 29.3556 39.3583 28.2053 39.4162 27.0564C39.5202 24.9478 39.6093 22.8391 39.7044 20.7305C39.7044 20.7146 39.7102 20.6974 39.7176 20.6688C39.7177 20.6683 39.718 20.6678 39.7184 20.6674Z" fill="#F25935"/>
</svg>
