<svg width="43" height="43" viewBox="0 0 43 43" fill="none" xmlns="http://www.w3.org/2000/svg">
<rect width="43" height="43" rx="21.5" fill="white"/>
<path d="M11.8203 19.0859V31.2344H15.8828V19.0859H11.8203ZM13.8516 13.2656C14.2161 13.2656 14.5286 13.3177 14.7891 13.4219C15.0755 13.526 15.3099 13.6693 15.4922 13.8516C15.7005 14.0339 15.8568 14.2552 15.9609 14.5156C16.0651 14.776 16.1172 15.0495 16.1172 15.3359C16.1172 15.6484 16.0651 15.9349 15.9609 16.1953C15.8568 16.4297 15.7005 16.651 15.4922 16.8594C15.3099 17.0417 15.0755 17.1849 14.7891 17.2891C14.5026 17.3932 14.1901 17.4453 13.8516 17.4453H13.8125C13.474 17.4453 13.1615 17.3932 12.875 17.2891C12.6146 17.1849 12.3802 17.0417 12.1719 16.8594C11.9896 16.651 11.8464 16.4297 11.7422 16.1953C11.638 15.9349 11.5859 15.6484 11.5859 15.3359C11.5859 15.0495 11.638 14.776 11.7422 14.5156C11.8464 14.2552 12.0026 14.0339 12.2109 13.8516C12.4193 13.6693 12.6536 13.526 12.9141 13.4219C13.2005 13.3177 13.513 13.2656 13.8516 13.2656ZM25.7656 18.8125C26.4427 18.8125 27.0547 18.9297 27.6016 19.1641C28.1745 19.3724 28.6693 19.7109 29.0859 20.1797C29.5026 20.6224 29.8281 21.1823 30.0625 21.8594C30.2969 22.5365 30.4141 23.3438 30.4141 24.2812V31.2344H26.3906V24.75C26.3906 24.3333 26.3516 23.9557 26.2734 23.6172C26.1953 23.2786 26.0651 22.9922 25.8828 22.7578C25.7266 22.5234 25.5182 22.3411 25.2578 22.2109C24.9974 22.0807 24.6849 22.0156 24.3203 22.0156C24.0599 22.0156 23.8125 22.0547 23.5781 22.1328C23.3438 22.2109 23.1354 22.3281 22.9531 22.4844C22.7969 22.6146 22.6536 22.7708 22.5234 22.9531C22.4193 23.1094 22.3281 23.2786 22.25 23.4609C22.224 23.5391 22.1979 23.6172 22.1719 23.6953C22.1719 23.7734 22.1589 23.8516 22.1328 23.9297C22.1328 24.0078 22.1328 24.099 22.1328 24.2031C22.1328 24.2812 22.1328 24.3724 22.1328 24.4766V31.2344H18.1094C18.1094 28.5 18.1094 26.3255 18.1094 24.7109C18.1094 23.0964 18.1094 21.8724 18.1094 21.0391C18.1094 20.2057 18.1094 19.6719 18.1094 19.4375C18.1094 19.2031 18.1094 19.0859 18.1094 19.0859H22.1328V20.8438C22.263 20.6354 22.4193 20.4141 22.6016 20.1797C22.8099 19.9453 23.0573 19.724 23.3438 19.5156C23.6302 19.3073 23.9688 19.138 24.3594 19.0078C24.75 18.8776 25.2188 18.8125 25.7656 18.8125Z" fill="black"/>
</svg>
