<svg width="91" height="54" viewBox="0 0 91 54" fill="none" xmlns="http://www.w3.org/2000/svg">
<path d="M47.8573 53.4995C49.2878 53.3822 50.7608 53.4467 52.14 53.117C57.3402 51.8741 61.4221 48.7976 64.6422 44.682C66.3702 42.4733 67.6526 39.8996 69.0055 37.4182C69.9347 35.7136 71.2992 34.5924 73.1123 34.2582C74.8022 33.946 76.5668 33.9651 78.2993 33.9753C79.4557 33.9827 80.0991 34.6129 80.0097 35.9056C79.8763 37.8418 79.8382 39.7838 79.7693 41.7243C79.7503 42.2505 79.7664 42.7796 79.7664 43.6707C80.1724 43.1724 80.4084 42.9907 80.5007 42.7532C82.0455 38.7666 84.2821 35.2299 87.146 32.0509C88.3068 30.7611 89.5116 29.209 88.5164 27.3579C87.5843 25.6254 85.7009 25.3484 83.9406 25.4496C80.7733 25.6313 77.6148 26.0036 74.4563 26.3231C73.6282 26.4066 72.8089 26.5869 71.5499 26.7936C72.4131 25.3352 72.9862 24.1231 73.8085 23.1118C74.0884 22.7688 75.0513 22.7322 75.5995 22.8964C78.5382 23.7802 81.4842 24.3708 84.565 23.8139C87.5227 23.2804 90.6211 20.0779 90.7574 17.2843C90.5083 17.3781 90.2723 17.4162 90.0964 17.5393C85.7874 20.5645 83.4086 20.2933 79.312 16.9487C77.5122 15.4786 75.3181 14.2445 73.1005 13.5879C68.9029 12.3421 64.4443 14.3383 61.9131 18.0054C59.6442 21.2929 58.6417 24.9981 58.1932 28.8983C58.161 29.1855 58.1156 29.4699 58.0511 29.9316C56.5634 29.4113 55.1871 28.8499 53.7625 28.4747C53.2627 28.3428 52.4464 28.4747 52.1092 28.8147C50.2361 30.7157 48.2663 32.5756 46.7127 34.7258C45.0814 36.9858 45.7145 39.0202 48.2047 40.2777C51.1917 41.7859 54.2359 42.2813 57.2801 39.7765C56.8463 42.7825 56.1061 45.5893 54.1934 47.6852C52.3511 49.7049 49.9752 51.238 47.8339 52.985C47.8412 53.1565 47.85 53.3265 47.8573 53.498V53.4995ZM60.5031 29.2456C60.3712 29.1723 60.2408 29.0991 60.1089 29.0258C61.8032 25.6782 64.0515 22.7337 66.9433 19.9152C64.6891 23.1807 62.5961 26.2132 60.5031 29.2456ZM58.438 35.1405C58.3471 35.1186 58.2563 35.0951 58.1639 35.0731C58.2988 33.6426 58.4336 32.2107 58.5714 30.7523C59.9227 31.1246 59.9711 31.1407 59.6648 32.0377C59.3057 33.0901 58.8513 34.1087 58.438 35.142V35.1405Z" fill="#F25935"/>
<path d="M67.9722 6.47358C67.8373 8.41706 68.4236 10.0615 69.7749 11.3865C71.5953 13.1731 74.1573 13.009 75.8062 11.0509C77.9035 8.55923 77.968 4.78953 75.96 2.22168C74.2716 0.0627538 71.5088 -0.0911413 69.624 1.90656C68.4119 3.19195 67.8051 4.72944 67.9736 6.47358H67.9722Z" fill="#F25935"/>
<path d="M48.8613 25.3279C49.2673 24.8281 49.6293 24.2829 50.0881 23.8359C52.1972 21.7825 54.6287 20.4429 57.6832 20.6026C58.6373 20.6524 59.1151 20.2846 59.5768 19.37C60.3434 17.8545 61.4441 16.509 62.4041 15.0902C55.4949 12.2703 49.5575 19.3392 48.5154 25.1301L48.8628 25.3265L48.8613 25.3279Z" fill="#F25935"/>
<path d="M58.4732 22.6575C56.9225 24.4383 55.4876 26.0857 54.082 27.6994C55.8452 28.4835 58.1068 26.0989 58.4732 22.6575Z" fill="#F25935"/>
<path d="M60.5031 29.2457C62.5961 26.2132 64.6891 23.1807 66.9433 19.9152C64.0515 22.7337 61.8032 25.6797 60.1089 29.0258C60.2408 29.0991 60.3712 29.1724 60.5031 29.2457Z" fill="white"/>
<path d="M58.438 35.1406C58.8513 34.1073 59.3057 33.0887 59.6648 32.0363C59.9711 31.1408 59.9213 31.1232 58.5714 30.7509C58.4336 32.2107 58.2988 33.6412 58.1639 35.0717C58.2548 35.0937 58.3457 35.1171 58.438 35.1391V35.1406Z" fill="white"/>
<path d="M27.6097 36.5608C26.4454 36.5608 25.3124 36.5457 24.1808 36.5698C23.8481 36.5773 23.6714 36.4719 23.4991 36.1813C21.325 32.506 19.1361 28.8396 16.9501 25.1702C16.9023 25.0903 16.783 25.0933 16.7348 25.1731C16.7232 25.1924 16.7119 25.2114 16.7007 25.2305C14.4761 28.945 12.25 32.661 10.0299 36.3786C9.9482 36.5141 9.86356 36.5668 9.70614 36.5653C8.75126 36.5578 7.7949 36.5683 6.84002 36.5563C6.61578 36.5532 6.39006 36.499 6.16879 36.4463C4.41199 36.0308 2.91062 35.171 1.72408 33.7798C0.683073 32.5587 0.198952 31.1011 0.0489635 29.5202C-0.0564739 28.4105 0.00441263 27.3053 0.270234 26.2182C0.562786 25.0197 1.21472 24.0349 2.04633 23.1571C3.13189 22.0113 4.42536 21.2298 5.98019 20.9919C6.8222 20.8625 7.68352 20.8293 8.53593 20.8218C10.263 20.8052 11.9901 20.8338 13.7157 20.8459C13.8313 20.8459 13.9049 20.9833 13.8479 21.0838C13.4187 21.8607 12.9851 22.6362 12.5619 23.4176C12.4802 23.5682 12.3911 23.6284 12.2173 23.6269C10.8051 23.6194 9.39131 23.6103 7.97905 23.6269C7.16376 23.6359 6.34551 23.7037 5.60002 24.0816C3.92936 24.9293 2.94775 26.2709 2.79479 28.1952C2.73539 28.9405 2.7443 29.6843 2.97745 30.395C3.48385 31.9428 4.46843 33.0284 6.03811 33.5057C6.62173 33.6834 7.22316 33.7497 7.83054 33.7632C7.97162 33.7662 8.05181 33.721 8.12606 33.5961C10.021 30.3965 11.9203 27.1999 13.8197 24.0018C14.1167 23.5019 14.4137 23.0005 14.7107 22.5006C15.0151 21.9887 15.4087 21.5581 15.8824 21.2043C16.5536 20.7044 17.2768 20.6923 17.9674 21.1681C18.4203 21.4813 18.7901 21.8788 19.0663 22.3591C20.9404 25.6054 22.8116 28.8547 24.6842 32.1039C24.7272 32.178 24.8401 32.1471 24.8401 32.0615V25.4831C24.8401 24.4421 23.9963 23.5983 22.9553 23.5983H21.4391C20.6732 23.5983 20.0524 22.9774 20.0524 22.2116C20.0524 21.4457 20.6732 20.8248 21.4391 20.8248H30.4739C31.2377 20.8248 31.8569 21.444 31.8569 22.2078C31.8569 22.9716 31.2377 23.5908 30.4739 23.5908H29.7303C28.5559 23.5908 27.6038 24.5429 27.6038 25.7173V36.5548C27.6038 36.5581 27.6064 36.5608 27.6097 36.5608Z" fill="#F25935"/>
<path d="M39.7184 21.1678C39.7189 21.1672 39.7197 21.1669 39.7205 21.1669H42.6394C43.059 21.1669 43.3921 21.5171 43.3724 21.9362C43.2714 23.9983 43.1659 26.059 43.0694 28.1211C43.0233 29.1027 42.9966 30.0857 42.9505 31.0674C42.9119 31.8905 42.7633 32.7048 42.4706 33.4698C42.1795 34.2303 41.6194 34.8149 40.9197 35.2657C40.0639 35.8154 39.1191 36.0976 38.1103 36.163C37.4537 36.2052 36.7881 36.2502 36.1359 36.1935C34.9504 36.0903 33.8377 35.75 32.8928 34.9894C32.0787 34.3336 31.6716 33.461 31.5602 32.4707C31.4829 31.7814 31.5067 31.0775 31.5275 30.381C31.5646 29.1783 31.6345 27.9757 31.6894 26.773C31.7726 24.9261 31.8558 23.0778 31.9375 21.2309C31.9375 21.1945 31.9754 21.1698 32.0118 21.1698H34.3771C34.9924 21.1698 35.5154 21.6691 35.4882 22.2838C35.4392 23.469 35.3812 24.6542 35.3248 25.8394C35.2668 27.0479 35.197 28.2549 35.1539 29.4633C35.1301 30.1497 35.1643 30.8361 35.3575 31.5036C35.5565 32.19 35.9978 32.6467 36.7094 32.827C37.4165 33.0059 38.0167 32.8168 38.5174 32.2947C38.871 31.9254 39.0166 31.4789 39.1012 30.9932C39.3018 29.856 39.3583 28.7057 39.4162 27.5568C39.5202 25.4482 39.6093 23.3396 39.7044 21.2309C39.7044 21.2151 39.7102 21.1978 39.7176 21.1692C39.7177 21.1687 39.718 21.1682 39.7184 21.1678Z" fill="#F25935"/>
</svg>
