<svg width="43" height="43" viewBox="0 0 43 43" fill="none" xmlns="http://www.w3.org/2000/svg">
<rect width="43" height="43" rx="21.5" fill="white"/>
<path d="M28.6953 19.5547C28.6953 20.6745 28.5391 21.7161 28.2266 22.6797C27.9401 23.6432 27.5234 24.4766 26.9766 25.1797C26.4297 25.8568 25.7786 26.4036 25.0234 26.8203C24.2682 27.2109 23.4349 27.3932 22.5234 27.3672C22.2109 27.3932 21.8984 27.3672 21.5859 27.2891C21.2995 27.1849 21.026 27.0807 20.7656 26.9766C20.5312 26.8464 20.3229 26.6901 20.1406 26.5078C19.9583 26.3255 19.8151 26.1562 19.7109 26C19.5547 26.625 19.4245 27.1458 19.3203 27.5625C19.2161 27.9792 19.125 28.3047 19.0469 28.5391C18.9948 28.7474 18.9557 28.9036 18.9297 29.0078C18.9297 29.0859 18.9297 29.112 18.9297 29.0859C18.8516 29.3203 18.7734 29.5417 18.6953 29.75C18.6172 29.9583 18.526 30.1797 18.4219 30.4141C18.3177 30.6224 18.2005 30.8177 18.0703 31C17.9661 31.1823 17.862 31.3646 17.7578 31.5469C17.4453 31.7552 17.1979 31.8464 17.0156 31.8203C16.8594 31.8203 16.7292 31.7552 16.625 31.625C16.5469 31.4948 16.4948 31.3646 16.4688 31.2344C16.4427 31.1302 16.4297 31.0651 16.4297 31.0391C16.4036 30.8568 16.3906 30.6615 16.3906 30.4531C16.3906 30.2188 16.3906 29.9974 16.3906 29.7891C16.4167 29.5547 16.4427 29.3203 16.4688 29.0859C16.5208 28.8516 16.5729 28.6432 16.625 28.4609C16.625 28.4349 16.638 28.3568 16.6641 28.2266C16.7161 28.0703 16.7943 27.7708 16.8984 27.3281C17.0026 26.8594 17.1458 26.2214 17.3281 25.4141C17.5104 24.6068 17.7578 23.5391 18.0703 22.2109C17.9922 22.0547 17.9271 21.8594 17.875 21.625C17.8229 21.3906 17.7839 21.1953 17.7578 21.0391C17.7318 20.8568 17.7188 20.7005 17.7188 20.5703C17.7188 20.4401 17.7188 20.388 17.7188 20.4141C17.7188 19.9714 17.7708 19.5807 17.875 19.2422C18.0052 18.8776 18.1615 18.5651 18.3438 18.3047C18.5521 18.0182 18.7865 17.8099 19.0469 17.6797C19.3333 17.5234 19.6198 17.4323 19.9062 17.4062C20.1667 17.4323 20.388 17.4844 20.5703 17.5625C20.7786 17.6406 20.9479 17.7708 21.0781 17.9531C21.2083 18.1354 21.2995 18.3307 21.3516 18.5391C21.4297 18.7214 21.4688 18.9427 21.4688 19.2031C21.4688 19.4375 21.4297 19.724 21.3516 20.0625C21.2734 20.375 21.1823 20.7005 21.0781 21.0391C20.974 21.3776 20.8568 21.7422 20.7266 22.1328C20.6224 22.4974 20.5312 22.849 20.4531 23.1875C20.375 23.526 20.362 23.8255 20.4141 24.0859C20.4922 24.3203 20.6094 24.5547 20.7656 24.7891C20.9479 24.9974 21.1693 25.1536 21.4297 25.2578C21.6901 25.362 21.9635 25.4271 22.25 25.4531C22.7969 25.4271 23.2917 25.2578 23.7344 24.9453C24.1771 24.6328 24.5547 24.1901 24.8672 23.6172C25.2057 23.0443 25.4531 22.4062 25.6094 21.7031C25.7917 20.974 25.8828 20.1797 25.8828 19.3203C25.8828 18.7214 25.7786 18.1484 25.5703 17.6016C25.362 17.0547 25.0495 16.599 24.6328 16.2344C24.2422 15.8438 23.7474 15.5312 23.1484 15.2969C22.5755 15.0625 21.8984 14.9583 21.1172 14.9844C20.2578 14.9583 19.4766 15.1016 18.7734 15.4141C18.0964 15.7266 17.5104 16.1302 17.0156 16.625C16.5208 17.1198 16.1432 17.7057 15.8828 18.3828C15.6224 19.0339 15.4922 19.7109 15.4922 20.4141C15.4922 20.7005 15.5052 20.9479 15.5312 21.1562C15.5833 21.3385 15.6354 21.5339 15.6875 21.7422C15.7656 21.9245 15.8438 22.0938 15.9219 22.25C16.026 22.3802 16.1432 22.5365 16.2734 22.7188C16.3255 22.7448 16.3646 22.7969 16.3906 22.875C16.4167 22.9271 16.4297 22.9661 16.4297 22.9922C16.4557 23.0182 16.4688 23.0703 16.4688 23.1484C16.4688 23.2005 16.4557 23.2526 16.4297 23.3047C16.4036 23.3828 16.3776 23.4609 16.3516 23.5391C16.3516 23.5911 16.3385 23.6693 16.3125 23.7734C16.2865 23.8776 16.2604 23.9688 16.2344 24.0469C16.2083 24.099 16.1953 24.1641 16.1953 24.2422C16.1693 24.2943 16.1302 24.3594 16.0781 24.4375C16.0521 24.4896 16.013 24.5286 15.9609 24.5547C15.9089 24.5547 15.8568 24.5677 15.8047 24.5938C15.7526 24.5938 15.6875 24.5677 15.6094 24.5156C15.2188 24.3594 14.8672 24.138 14.5547 23.8516C14.2682 23.5391 14.0339 23.2005 13.8516 22.8359C13.6693 22.4714 13.526 22.0547 13.4219 21.5859C13.3177 21.1172 13.2656 20.6484 13.2656 20.1797C13.2656 19.3464 13.4349 18.513 13.7734 17.6797C14.138 16.8464 14.6589 16.0781 15.3359 15.375C16.013 14.6719 16.8594 14.112 17.875 13.6953C18.8906 13.2526 20.0755 13.0182 21.4297 12.9922C22.5234 13.0182 23.513 13.2135 24.3984 13.5781C25.3099 13.9167 26.0781 14.3984 26.7031 15.0234C27.3281 15.6484 27.8099 16.3516 28.1484 17.1328C28.513 17.888 28.6953 18.6953 28.6953 19.5547Z" fill="black"/>
</svg>
