<svg width="51" height="36" viewBox="0 0 51 36" fill="none" xmlns="http://www.w3.org/2000/svg">
<path opacity="0.4" d="M20.4268 1.72559L10.4009 16.8395L9.41927 18.3193L11.1937 18.3914C13.7009 18.4933 15.6401 19.3473 17.1022 20.909C18.5923 22.5007 19.3287 24.3672 19.3287 26.5589C19.3287 28.9349 18.4443 30.8844 16.6372 32.4743C14.9411 33.96 12.8077 34.7256 10.1643 34.7256C7.63993 34.7256 5.48511 34.0143 3.65485 32.6101C1.90768 31.163 1 29.1356 1 26.3923C1 23.9786 1.91617 21.2204 3.87585 18.0947C5.99879 14.7881 9.37122 9.97627 14.0027 3.64961L14.0114 3.63774L14.0197 3.62562L15.3266 1.72559H20.4268ZM49.1366 1.72559L39.1107 16.8395L38.1312 18.3161L39.9016 18.3913C42.2769 18.4923 44.1626 19.3377 45.6336 20.909C47.1238 22.5007 47.8601 24.3672 47.8601 26.5589C47.8601 28.9507 47.0223 30.9024 45.3359 32.484C43.6416 33.9633 41.5118 34.7256 38.8741 34.7256C36.2205 34.7256 34.0092 34.0084 32.1863 32.6101C30.4391 31.163 29.5315 29.1356 29.5315 26.3923C29.5315 23.9786 30.4476 21.2205 32.4072 18.0949C34.5292 14.7898 37.8997 9.98059 42.5281 3.65786L44.0048 1.72559H49.1366Z" stroke="#F05528" stroke-width="2"/>
</svg>
