<svg width="19" height="18" viewBox="0 0 19 18" fill="none" xmlns="http://www.w3.org/2000/svg">
<path d="M10.4538 1.32324C10.2789 0.958008 9.9095 0.725586 9.50377 0.725586C9.09804 0.725586 8.7319 0.958008 8.55377 1.32324L6.43276 5.71602L1.69596 6.41992C1.30013 6.47969 0.970265 6.75859 0.848216 7.14043C0.726167 7.52227 0.825126 7.94394 1.10881 8.22617L4.54596 11.6494L3.7345 16.4871C3.66853 16.8855 3.83346 17.2906 4.16002 17.5264C4.48658 17.7621 4.9187 17.792 5.27495 17.6027L9.50707 15.3283L13.7392 17.6027C14.0954 17.792 14.5276 17.7654 14.8541 17.5264C15.1807 17.2873 15.3456 16.8855 15.2796 16.4871L14.4649 11.6494L17.902 8.22617C18.1857 7.94394 18.288 7.52227 18.1626 7.14043C18.0373 6.75859 17.7107 6.47969 17.3149 6.41992L12.5748 5.71602L10.4538 1.32324Z" fill="#F05528"/>
</svg>
